<svg width="38" height="38" viewBox="0 0 38 38" fill="none" xmlns="http://www.w3.org/2000/svg">
<path d="M9.93791 21.9195H17.1307C17.6671 21.9195 18.3955 23.1512 19.4669 23.9127V23.0363C19.4669 23.0363 19.4324 22.5166 19.6387 22.2022C19.8479 21.8869 20.2842 21.803 20.4204 21.803H27.6131C27.6131 21.803 29.7851 21.4378 32.1998 20.3008L5.65234 20.5544C7.94318 21.5819 9.93791 21.9195 9.93791 21.9195Z" fill="#4CEBA1"/>
<path d="M2.42475 21.5221C2.24642 21.3862 2.07182 21.2455 1.90115 21.1001C2.02304 21.2956 2.20169 21.4471 2.42475 21.5221ZM3.7424 2.00411H33.7019V19.5313C34.7521 18.949 35.3161 18.5522 35.7025 18.298V1.00082C35.7023 0.735296 35.5966 0.480736 35.4088 0.293074C35.2209 0.105412 34.9662 -1.28867e-07 34.7007 0H2.74059C2.18639 0 1.7373 0.449086 1.7373 1.00082V18.3425C2.11779 18.5823 2.6641 18.9845 3.7424 19.5861V2.00411Z" fill="#DB4CEB"/>
<path d="M37.4255 18.0007C37.1674 17.7949 36.8101 17.7958 36.2431 18.0007C36.0778 18.0609 35.9105 18.161 35.7027 18.2968C35.3163 18.5509 34.7527 18.9477 33.7021 19.53C33.3778 19.7077 33.0245 19.8992 32.5961 20.1138C32.4619 20.1809 32.3326 20.2357 32.1998 20.2999C29.7851 21.4369 27.6132 21.8021 27.6132 21.8021H20.4205C20.2843 21.8021 19.848 21.886 19.6388 22.2013C19.4325 22.5162 19.467 23.0354 19.467 23.0354V23.9118C19.7266 24.0959 20.001 24.2607 20.3035 24.3648C22.4719 25.1041 23.9391 24.4596 24.5792 23.5614C25.3278 22.5083 25.7088 21.9186 26.531 22.2265C27.3532 22.5344 26.531 24.5361 25.5045 25.5641C24.4756 26.5925 23.2423 27.4142 21.4973 27.4142C20.7639 27.4142 20.0533 27.3041 19.467 27.1793V34.6465C19.467 36.7537 21.7065 37.8799 23.2463 37.8799C24.786 37.8799 27.8689 37.0074 29.3593 33.3086C30.8481 29.6108 29.2581 24.731 29.2581 24.731C29.2581 24.731 31.6703 23.6498 34.1887 22.0592C36.7045 20.4677 37.3742 18.9768 37.4255 18.7676C37.4749 18.5568 37.6802 18.2069 37.4255 18.0007Z" fill="#4CEBA1"/>
<path d="M25.5042 25.566C26.5307 24.5381 27.3529 22.5364 26.5307 22.2285C25.7085 21.9205 25.3275 22.5103 24.5789 23.5634C23.9388 24.4616 22.4716 25.1061 20.3032 24.3668C20.0007 24.2627 19.7263 24.0978 19.4667 23.9138C18.3958 23.1523 17.6669 21.9205 17.1305 21.9205H9.9377C9.9377 21.9205 7.94247 21.583 5.65213 20.5555C5.42216 20.4519 5.19071 20.3492 4.9558 20.2313C4.54628 20.026 4.14166 19.8111 3.74228 19.5868C2.66398 18.9852 2.11767 18.5835 1.73719 18.3431C1.57877 18.2429 1.44454 18.1679 1.30735 18.1186C0.74278 17.9133 0.383018 17.9133 0.125904 18.1186C-0.12973 18.3249 0.0745794 18.6753 0.125904 18.885C0.165384 19.0454 0.57647 19.9628 1.90053 21.1008C2.36192 21.4937 2.85056 21.8533 3.36278 22.1771C5.87865 23.7697 8.29335 24.848 8.29335 24.848C8.29335 24.848 6.70082 29.7267 8.19218 33.4255C9.68157 37.1238 12.7635 38.0003 14.3042 38.0003C15.8454 38.0003 18.0849 36.8667 18.0849 34.7609V26.8003C18.0849 26.8003 18.6534 27.0075 19.4662 27.1807C20.0525 27.3056 20.7631 27.4157 21.4965 27.4157C23.242 27.4162 24.4753 26.5945 25.5042 25.566ZM24.2122 11.293C23.0268 11.2932 21.8901 11.7642 21.0518 12.6024C20.2136 13.4405 19.7425 14.5772 19.7421 15.7626C19.7421 18.2296 21.7432 20.2318 24.2122 20.2318C26.6787 20.2318 28.6794 18.2296 28.6794 15.7626C28.6794 13.2951 26.6787 11.293 24.2122 11.293Z" fill="#4CEBA1"/>
<path d="M13.6151 11.293C11.1476 11.293 9.14746 13.2951 9.14746 15.7626C9.14746 18.2296 11.1471 20.2318 13.6151 20.2318C16.0841 20.2318 18.0853 18.2296 18.0853 15.7626C18.0853 13.2951 16.0841 11.293 13.6151 11.293Z" fill="#4CEBA1"/>
</svg>
