<svg width="31" height="31" viewBox="0 0 31 31" fill="none" xmlns="http://www.w3.org/2000/svg">
<path d="M2.8791 10.875H28.7791M2.8791 20.125H28.7791M1.9541 15.5C1.9541 17.3221 2.31299 19.1263 3.01027 20.8097C3.70756 22.4931 4.72958 24.0227 6.01799 25.3111C7.30641 26.5995 8.83598 27.6215 10.5194 28.3188C12.2028 29.0161 14.007 29.375 15.8291 29.375C17.6512 29.375 19.4554 29.0161 21.1388 28.3188C22.8222 27.6215 24.3518 26.5995 25.6402 25.3111C26.9286 24.0227 27.9506 22.4931 28.6479 20.8097C29.3452 19.1263 29.7041 17.3221 29.7041 15.5C29.7041 11.8201 28.2423 8.29096 25.6402 5.68889C23.0381 3.08683 19.509 1.625 15.8291 1.625C12.1492 1.625 8.62006 3.08683 6.01799 5.68889C3.41593 8.29096 1.9541 11.8201 1.9541 15.5Z" stroke="white" stroke-width="2" stroke-linecap="round" stroke-linejoin="round"/>
<path d="M15.0581 1.625C12.4609 5.7869 11.084 10.5942 11.084 15.5C11.084 20.4058 12.4609 25.2131 15.0581 29.375M16.5998 1.625C19.1969 5.7869 20.5739 10.5942 20.5739 15.5C20.5739 20.4058 19.1969 25.2131 16.5998 29.375" stroke="white" stroke-width="2" stroke-linecap="round" stroke-linejoin="round"/>
</svg>
