<svg width="27" height="29" viewBox="0 0 27 29" fill="none" xmlns="http://www.w3.org/2000/svg">
<path d="M26.1476 26.6912L17.0242 12.3532L26.0267 2.45002C26.2303 2.22051 26.3352 1.92 26.3187 1.61364C26.3023 1.30728 26.1657 1.01977 25.9386 0.813426C25.7116 0.607086 25.4124 0.498554 25.1058 0.511362C24.7993 0.524169 24.5102 0.657282 24.3011 0.881843L15.7257 10.3142L9.8246 1.0407C9.71937 0.875072 9.57405 0.738682 9.40208 0.644164C9.23011 0.549647 9.03708 0.500061 8.84085 0.5H1.84526C1.63621 0.499898 1.43097 0.556005 1.25105 0.662443C1.07113 0.768882 0.923128 0.921738 0.822555 1.105C0.721981 1.28827 0.672531 1.49521 0.679383 1.70415C0.686235 1.91308 0.749136 2.11634 0.861501 2.29262L9.98492 16.6292L0.982466 26.5396C0.877338 26.6526 0.795669 26.7852 0.742193 26.93C0.688717 27.0747 0.664498 27.2286 0.670938 27.3827C0.677379 27.5369 0.714352 27.6882 0.779714 27.828C0.845076 27.9678 0.937526 28.0932 1.05171 28.1969C1.16589 28.3007 1.29953 28.3808 1.44489 28.4325C1.59024 28.4842 1.74442 28.5066 1.89849 28.4983C2.05255 28.49 2.20344 28.4512 2.34241 28.3842C2.48138 28.3172 2.60565 28.2232 2.70805 28.1078L11.2835 18.6754L17.1845 27.949C17.2906 28.1132 17.4363 28.2482 17.6082 28.3414C17.7802 28.4346 17.9727 28.4831 18.1683 28.4824H25.1639C25.3727 28.4823 25.5777 28.4262 25.7574 28.3198C25.9371 28.2134 26.0849 28.0607 26.1855 27.8777C26.286 27.6947 26.3355 27.488 26.3289 27.2793C26.3222 27.0706 26.2596 26.8675 26.1476 26.6912ZM18.8081 26.1505L3.96871 2.83186H8.19521L23.0404 26.1505H18.8081Z" fill="white"/>
</svg>
